<mxfile host="Electron" modified="2025-09-12T07:11:50.658Z" agent="Mozilla/5.0 (Windows NT 10.0; Win64; x64) AppleWebKit/537.36 (KHTML, like Gecko) draw.io/23.1.5 Chrome/120.0.6099.109 Electron/28.1.0 Safari/537.36" etag="NvJsUFSAYH6WdH1pd_yX" version="23.1.5" type="device">
  <diagram name="Страница — 1" id="T47E8hV6ATgtZbQncQB_">
    <mxGraphModel dx="3871" dy="2704" grid="1" gridSize="10" guides="1" tooltips="1" connect="1" arrows="1" fold="1" page="1" pageScale="1" pageWidth="827" pageHeight="1169" math="0" shadow="0">
      <root>
        <mxCell id="0" />
        <mxCell id="1" parent="0" />
        <mxCell id="uwkp4yRBVki2ElJtnmEd-2" value="Гость" style="shape=umlActor;verticalLabelPosition=bottom;verticalAlign=top;html=1;" parent="1" vertex="1">
          <mxGeometry x="-545" y="510" width="30" height="60" as="geometry" />
        </mxCell>
        <mxCell id="uwkp4yRBVki2ElJtnmEd-3" value="Простмотр подробной информации о товаре" style="ellipse;whiteSpace=wrap;html=1;" parent="1" vertex="1">
          <mxGeometry x="-10" y="645" width="140" height="70" as="geometry" />
        </mxCell>
        <mxCell id="uwkp4yRBVki2ElJtnmEd-4" value="Просмотр списка отзывов" style="ellipse;whiteSpace=wrap;html=1;" parent="1" vertex="1">
          <mxGeometry x="220" y="640" width="140" height="70" as="geometry" />
        </mxCell>
        <mxCell id="uwkp4yRBVki2ElJtnmEd-5" value="&lt;span style=&quot;color: rgb(0, 0, 0); font-family: Helvetica; font-size: 12px; font-style: normal; font-variant-ligatures: normal; font-variant-caps: normal; font-weight: 400; letter-spacing: normal; orphans: 2; text-align: center; text-indent: 0px; text-transform: none; widows: 2; word-spacing: 0px; -webkit-text-stroke-width: 0px; background-color: rgb(251, 251, 251); text-decoration-thickness: initial; text-decoration-style: initial; text-decoration-color: initial; float: none; display: inline !important;&quot;&gt;Добавление товара&amp;nbsp;в корзину&lt;/span&gt;" style="ellipse;whiteSpace=wrap;html=1;" parent="1" vertex="1">
          <mxGeometry x="-47" y="805" width="140" height="70" as="geometry" />
        </mxCell>
        <mxCell id="uwkp4yRBVki2ElJtnmEd-66" style="rounded=0;orthogonalLoop=1;jettySize=auto;html=1;endArrow=block;endFill=0;" parent="1" edge="1">
          <mxGeometry relative="1" as="geometry">
            <mxPoint x="-530" y="600" as="targetPoint" />
            <mxPoint x="-530" y="680" as="sourcePoint" />
          </mxGeometry>
        </mxCell>
        <mxCell id="uwkp4yRBVki2ElJtnmEd-6" value="Фильрация товаров по ключевым словам" style="ellipse;whiteSpace=wrap;html=1;" parent="1" vertex="1">
          <mxGeometry x="68" y="480" width="140" height="70" as="geometry" />
        </mxCell>
        <mxCell id="uwkp4yRBVki2ElJtnmEd-69" style="rounded=0;orthogonalLoop=1;jettySize=auto;html=1;exitX=0.5;exitY=1;exitDx=0;exitDy=0;entryX=0.5;entryY=0;entryDx=0;entryDy=0;endArrow=block;endFill=0;" parent="1" source="uwkp4yRBVki2ElJtnmEd-7" target="uwkp4yRBVki2ElJtnmEd-23" edge="1">
          <mxGeometry relative="1" as="geometry" />
        </mxCell>
        <mxCell id="uwkp4yRBVki2ElJtnmEd-7" value="Верификация по email" style="ellipse;whiteSpace=wrap;html=1;" parent="1" vertex="1">
          <mxGeometry x="-278" y="660" width="140" height="70" as="geometry" />
        </mxCell>
        <mxCell id="uwkp4yRBVki2ElJtnmEd-8" value="Применение промокода" style="ellipse;whiteSpace=wrap;html=1;" parent="1" vertex="1">
          <mxGeometry x="65" y="215" width="140" height="70" as="geometry" />
        </mxCell>
        <mxCell id="uwkp4yRBVki2ElJtnmEd-9" value="Указание адреса доставки" style="ellipse;whiteSpace=wrap;html=1;" parent="1" vertex="1">
          <mxGeometry x="-300" y="185" width="140" height="70" as="geometry" />
        </mxCell>
        <mxCell id="uwkp4yRBVki2ElJtnmEd-10" value="Указание способа оплаты" style="ellipse;whiteSpace=wrap;html=1;" parent="1" vertex="1">
          <mxGeometry x="-138" y="135" width="140" height="70" as="geometry" />
        </mxCell>
        <mxCell id="uwkp4yRBVki2ElJtnmEd-11" value="Покупатель" style="shape=umlActor;verticalLabelPosition=bottom;verticalAlign=top;html=1;" parent="1" vertex="1">
          <mxGeometry x="-545" y="700" width="30" height="60" as="geometry" />
        </mxCell>
        <mxCell id="uwkp4yRBVki2ElJtnmEd-43" style="rounded=0;orthogonalLoop=1;jettySize=auto;html=1;entryX=0;entryY=1;entryDx=0;entryDy=0;endArrow=none;endFill=0;" parent="1" source="uwkp4yRBVki2ElJtnmEd-12" target="uwkp4yRBVki2ElJtnmEd-31" edge="1">
          <mxGeometry relative="1" as="geometry">
            <mxPoint x="-506.5" y="-310" as="sourcePoint" />
          </mxGeometry>
        </mxCell>
        <mxCell id="uwkp4yRBVki2ElJtnmEd-12" value="Менеджер" style="shape=umlActor;verticalLabelPosition=bottom;verticalAlign=top;html=1;" parent="1" vertex="1">
          <mxGeometry x="-545" y="-270" width="30" height="60" as="geometry" />
        </mxCell>
        <mxCell id="uwkp4yRBVki2ElJtnmEd-56" style="rounded=0;orthogonalLoop=1;jettySize=auto;html=1;exitX=0;exitY=0.5;exitDx=0;exitDy=0;endArrow=none;endFill=0;" parent="1" source="uwkp4yRBVki2ElJtnmEd-13" target="uwkp4yRBVki2ElJtnmEd-2" edge="1">
          <mxGeometry relative="1" as="geometry">
            <mxPoint x="-500" y="650" as="targetPoint" />
          </mxGeometry>
        </mxCell>
        <mxCell id="uwkp4yRBVki2ElJtnmEd-13" value="Просмотр каталога товаров" style="ellipse;whiteSpace=wrap;html=1;" parent="1" vertex="1">
          <mxGeometry x="-168" y="520" width="140" height="70" as="geometry" />
        </mxCell>
        <mxCell id="uwkp4yRBVki2ElJtnmEd-59" style="rounded=0;orthogonalLoop=1;jettySize=auto;html=1;exitX=0;exitY=0;exitDx=0;exitDy=0;entryX=1;entryY=1;entryDx=0;entryDy=0;endArrow=block;endFill=0;" parent="1" source="uwkp4yRBVki2ElJtnmEd-19" target="uwkp4yRBVki2ElJtnmEd-5" edge="1">
          <mxGeometry relative="1" as="geometry" />
        </mxCell>
        <mxCell id="uwkp4yRBVki2ElJtnmEd-19" value="&lt;span style=&quot;color: rgb(0, 0, 0); font-family: Helvetica; font-size: 12px; font-style: normal; font-variant-ligatures: normal; font-variant-caps: normal; font-weight: 400; letter-spacing: normal; orphans: 2; text-align: center; text-indent: 0px; text-transform: none; widows: 2; word-spacing: 0px; -webkit-text-stroke-width: 0px; background-color: rgb(251, 251, 251); text-decoration-thickness: initial; text-decoration-style: initial; text-decoration-color: initial; float: none; display: inline !important;&quot;&gt;Добавление товара из каталога&lt;/span&gt;" style="ellipse;whiteSpace=wrap;html=1;" parent="1" vertex="1">
          <mxGeometry x="170.5" y="950" width="140" height="70" as="geometry" />
        </mxCell>
        <mxCell id="uwkp4yRBVki2ElJtnmEd-58" style="rounded=0;orthogonalLoop=1;jettySize=auto;html=1;endArrow=block;endFill=0;entryX=1;entryY=0;entryDx=0;entryDy=0;" parent="1" source="uwkp4yRBVki2ElJtnmEd-20" target="uwkp4yRBVki2ElJtnmEd-5" edge="1">
          <mxGeometry relative="1" as="geometry" />
        </mxCell>
        <mxCell id="uwkp4yRBVki2ElJtnmEd-20" value="&lt;span style=&quot;color: rgb(0, 0, 0); font-family: Helvetica; font-size: 12px; font-style: normal; font-variant-ligatures: normal; font-variant-caps: normal; font-weight: 400; letter-spacing: normal; orphans: 2; text-align: center; text-indent: 0px; text-transform: none; widows: 2; word-spacing: 0px; -webkit-text-stroke-width: 0px; background-color: rgb(251, 251, 251); text-decoration-thickness: initial; text-decoration-style: initial; text-decoration-color: initial; float: none; display: inline !important;&quot;&gt;Добавление товара со страницы с описанием&lt;/span&gt;" style="ellipse;whiteSpace=wrap;html=1;" parent="1" vertex="1">
          <mxGeometry x="208" y="750" width="140" height="70" as="geometry" />
        </mxCell>
        <mxCell id="uwkp4yRBVki2ElJtnmEd-21" value="&lt;span style=&quot;color: rgb(0, 0, 0); font-family: Helvetica; font-size: 12px; font-style: normal; font-variant-ligatures: normal; font-variant-caps: normal; font-weight: 400; letter-spacing: normal; orphans: 2; text-align: center; text-indent: 0px; text-transform: none; widows: 2; word-spacing: 0px; -webkit-text-stroke-width: 0px; background-color: rgb(251, 251, 251); text-decoration-thickness: initial; text-decoration-style: initial; text-decoration-color: initial; float: none; display: inline !important;&quot;&gt;Изменение количества единиц заказаного товара&lt;/span&gt;" style="ellipse;whiteSpace=wrap;html=1;" parent="1" vertex="1">
          <mxGeometry x="243" y="840" width="140" height="70" as="geometry" />
        </mxCell>
        <mxCell id="uwkp4yRBVki2ElJtnmEd-57" style="rounded=0;orthogonalLoop=1;jettySize=auto;html=1;exitX=0;exitY=1;exitDx=0;exitDy=0;endArrow=none;endFill=0;" parent="1" source="uwkp4yRBVki2ElJtnmEd-22" target="uwkp4yRBVki2ElJtnmEd-2" edge="1">
          <mxGeometry relative="1" as="geometry">
            <mxPoint x="-510" y="630" as="targetPoint" />
          </mxGeometry>
        </mxCell>
        <mxCell id="uwkp4yRBVki2ElJtnmEd-22" value="&lt;span style=&quot;color: rgb(0, 0, 0); font-family: Helvetica; font-size: 12px; font-style: normal; font-variant-ligatures: normal; font-variant-caps: normal; font-weight: 400; letter-spacing: normal; orphans: 2; text-align: center; text-indent: 0px; text-transform: none; widows: 2; word-spacing: 0px; -webkit-text-stroke-width: 0px; background-color: rgb(251, 251, 251); text-decoration-thickness: initial; text-decoration-style: initial; text-decoration-color: initial; float: none; display: inline !important;&quot;&gt;Просмотр корзины&lt;/span&gt;" style="ellipse;whiteSpace=wrap;html=1;" parent="1" vertex="1">
          <mxGeometry x="-278" y="415" width="140" height="70" as="geometry" />
        </mxCell>
        <mxCell id="uwkp4yRBVki2ElJtnmEd-67" style="rounded=0;orthogonalLoop=1;jettySize=auto;html=1;endArrow=none;endFill=0;" parent="1" source="uwkp4yRBVki2ElJtnmEd-23" target="uwkp4yRBVki2ElJtnmEd-11" edge="1">
          <mxGeometry relative="1" as="geometry">
            <mxPoint x="-500" y="870" as="targetPoint" />
          </mxGeometry>
        </mxCell>
        <mxCell id="uwkp4yRBVki2ElJtnmEd-23" value="Авторизация" style="ellipse;whiteSpace=wrap;html=1;" parent="1" vertex="1">
          <mxGeometry x="-340" y="780" width="140" height="70" as="geometry" />
        </mxCell>
        <mxCell id="uwkp4yRBVki2ElJtnmEd-68" style="rounded=0;orthogonalLoop=1;jettySize=auto;html=1;exitX=0.5;exitY=0;exitDx=0;exitDy=0;entryX=0.5;entryY=1;entryDx=0;entryDy=0;endArrow=block;endFill=0;" parent="1" source="uwkp4yRBVki2ElJtnmEd-25" target="uwkp4yRBVki2ElJtnmEd-23" edge="1">
          <mxGeometry relative="1" as="geometry" />
        </mxCell>
        <mxCell id="uwkp4yRBVki2ElJtnmEd-25" value="Верификация по номеру телефона" style="ellipse;whiteSpace=wrap;html=1;" parent="1" vertex="1">
          <mxGeometry x="-260" y="880" width="140" height="70" as="geometry" />
        </mxCell>
        <mxCell id="uwkp4yRBVki2ElJtnmEd-73" style="rounded=0;orthogonalLoop=1;jettySize=auto;html=1;exitX=0;exitY=0;exitDx=0;exitDy=0;entryX=1;entryY=1;entryDx=0;entryDy=0;endArrow=block;endFill=0;" parent="1" source="uwkp4yRBVki2ElJtnmEd-26" target="uwkp4yRBVki2ElJtnmEd-30" edge="1">
          <mxGeometry relative="1" as="geometry" />
        </mxCell>
        <mxCell id="uwkp4yRBVki2ElJtnmEd-26" value="&lt;span style=&quot;color: rgb(0, 0, 0); font-family: Helvetica; font-size: 12px; font-style: normal; font-variant-ligatures: normal; font-variant-caps: normal; font-weight: 400; letter-spacing: normal; orphans: 2; text-align: center; text-indent: 0px; text-transform: none; widows: 2; word-spacing: 0px; -webkit-text-stroke-width: 0px; background-color: rgb(251, 251, 251); text-decoration-thickness: initial; text-decoration-style: initial; text-decoration-color: initial; float: none; display: inline !important;&quot;&gt;Оформление заказа на часть корзины&lt;/span&gt;" style="ellipse;whiteSpace=wrap;html=1;" parent="1" vertex="1">
          <mxGeometry x="2" y="380" width="140" height="70" as="geometry" />
        </mxCell>
        <mxCell id="uwkp4yRBVki2ElJtnmEd-72" style="rounded=0;orthogonalLoop=1;jettySize=auto;html=1;entryX=1;entryY=0.5;entryDx=0;entryDy=0;endArrow=block;endFill=0;" parent="1" target="uwkp4yRBVki2ElJtnmEd-30" edge="1">
          <mxGeometry relative="1" as="geometry">
            <mxPoint x="112" y="325" as="sourcePoint" />
          </mxGeometry>
        </mxCell>
        <mxCell id="uwkp4yRBVki2ElJtnmEd-29" value="&lt;span style=&quot;color: rgb(0, 0, 0); font-family: Helvetica; font-size: 12px; font-style: normal; font-variant-ligatures: normal; font-variant-caps: normal; font-weight: 400; letter-spacing: normal; orphans: 2; text-align: center; text-indent: 0px; text-transform: none; widows: 2; word-spacing: 0px; -webkit-text-stroke-width: 0px; background-color: rgb(251, 251, 251); text-decoration-thickness: initial; text-decoration-style: initial; text-decoration-color: initial; float: none; display: inline !important;&quot;&gt;Оформление заказа на всю корзину&lt;/span&gt;" style="ellipse;whiteSpace=wrap;html=1;" parent="1" vertex="1">
          <mxGeometry x="113" y="295" width="140" height="70" as="geometry" />
        </mxCell>
        <mxCell id="uwkp4yRBVki2ElJtnmEd-30" value="&lt;span style=&quot;color: rgb(0, 0, 0); font-family: Helvetica; font-size: 12px; font-style: normal; font-variant-ligatures: normal; font-variant-caps: normal; font-weight: 400; letter-spacing: normal; orphans: 2; text-align: center; text-indent: 0px; text-transform: none; widows: 2; word-spacing: 0px; -webkit-text-stroke-width: 0px; background-color: rgb(251, 251, 251); text-decoration-thickness: initial; text-decoration-style: initial; text-decoration-color: initial; float: none; display: inline !important;&quot;&gt;Оформление заказа&lt;/span&gt;" style="ellipse;whiteSpace=wrap;html=1;" parent="1" vertex="1">
          <mxGeometry x="-128" y="285" width="140" height="70" as="geometry" />
        </mxCell>
        <mxCell id="uwkp4yRBVki2ElJtnmEd-88" style="rounded=0;orthogonalLoop=1;jettySize=auto;html=1;exitX=1;exitY=0;exitDx=0;exitDy=0;endArrow=none;endFill=0;entryX=0;entryY=1;entryDx=0;entryDy=0;startArrow=block;startFill=0;" parent="1" source="uwkp4yRBVki2ElJtnmEd-31" target="uwkp4yRBVki2ElJtnmEd-83" edge="1">
          <mxGeometry relative="1" as="geometry">
            <mxPoint x="-753.4974746830571" y="-329.99873734152857" as="sourcePoint" />
            <mxPoint x="-857" y="-305.25" as="targetPoint" />
          </mxGeometry>
        </mxCell>
        <mxCell id="uwkp4yRBVki2ElJtnmEd-89" style="rounded=0;orthogonalLoop=1;jettySize=auto;html=1;exitX=0.5;exitY=0;exitDx=0;exitDy=0;endArrow=none;endFill=0;startArrow=block;startFill=0;" parent="1" source="uwkp4yRBVki2ElJtnmEd-31" target="uwkp4yRBVki2ElJtnmEd-84" edge="1">
          <mxGeometry relative="1" as="geometry" />
        </mxCell>
        <mxCell id="uwkp4yRBVki2ElJtnmEd-90" style="rounded=0;orthogonalLoop=1;jettySize=auto;html=1;exitX=1;exitY=0.5;exitDx=0;exitDy=0;endArrow=none;endFill=0;startArrow=block;startFill=0;entryX=0;entryY=0.5;entryDx=0;entryDy=0;" parent="1" source="uwkp4yRBVki2ElJtnmEd-31" target="uwkp4yRBVki2ElJtnmEd-85" edge="1">
          <mxGeometry relative="1" as="geometry" />
        </mxCell>
        <mxCell id="uwkp4yRBVki2ElJtnmEd-31" value="Редактирование информации о товарах" style="ellipse;whiteSpace=wrap;html=1;" parent="1" vertex="1">
          <mxGeometry x="-230" y="-430" width="140" height="70" as="geometry" />
        </mxCell>
        <mxCell id="uwkp4yRBVki2ElJtnmEd-45" style="rounded=0;orthogonalLoop=1;jettySize=auto;html=1;exitX=0;exitY=0;exitDx=0;exitDy=0;endArrow=none;endFill=0;" parent="1" source="uwkp4yRBVki2ElJtnmEd-32" target="uwkp4yRBVki2ElJtnmEd-12" edge="1">
          <mxGeometry relative="1" as="geometry" />
        </mxCell>
        <mxCell id="uwkp4yRBVki2ElJtnmEd-32" value="Создание новых акций" style="ellipse;whiteSpace=wrap;html=1;" parent="1" vertex="1">
          <mxGeometry x="-298.5" y="-75" width="140" height="70" as="geometry" />
        </mxCell>
        <mxCell id="uwkp4yRBVki2ElJtnmEd-33" value="Создание&amp;nbsp;промокода&amp;nbsp;" style="ellipse;whiteSpace=wrap;html=1;" parent="1" vertex="1">
          <mxGeometry x="-18.5" y="-145" width="140" height="70" as="geometry" />
        </mxCell>
        <mxCell id="uwkp4yRBVki2ElJtnmEd-34" value="Указание размера скидки" style="ellipse;whiteSpace=wrap;html=1;" parent="1" vertex="1">
          <mxGeometry x="-199.5" y="65" width="140" height="70" as="geometry" />
        </mxCell>
        <mxCell id="uwkp4yRBVki2ElJtnmEd-35" value="Добавление условий акций" style="ellipse;whiteSpace=wrap;html=1;" parent="1" vertex="1">
          <mxGeometry x="30.5" y="-65" width="140" height="70" as="geometry" />
        </mxCell>
        <mxCell id="uwkp4yRBVki2ElJtnmEd-36" value="Указаниие срока действии акций" style="ellipse;whiteSpace=wrap;html=1;" parent="1" vertex="1">
          <mxGeometry x="0.5" y="25" width="140" height="70" as="geometry" />
        </mxCell>
        <mxCell id="uwkp4yRBVki2ElJtnmEd-51" style="rounded=0;orthogonalLoop=1;jettySize=auto;html=1;exitX=0;exitY=0;exitDx=0;exitDy=0;entryX=1;entryY=1;entryDx=0;entryDy=0;endArrow=block;endFill=0;" parent="1" source="uwkp4yRBVki2ElJtnmEd-37" target="uwkp4yRBVki2ElJtnmEd-40" edge="1">
          <mxGeometry relative="1" as="geometry" />
        </mxCell>
        <mxCell id="uwkp4yRBVki2ElJtnmEd-37" value="Просмотр отчётов о проведённых акциях" style="ellipse;whiteSpace=wrap;html=1;" parent="1" vertex="1">
          <mxGeometry x="-114.5" y="-215" width="140" height="70" as="geometry" />
        </mxCell>
        <mxCell id="uwkp4yRBVki2ElJtnmEd-50" style="rounded=0;orthogonalLoop=1;jettySize=auto;html=1;exitX=0;exitY=1;exitDx=0;exitDy=0;entryX=1;entryY=0;entryDx=0;entryDy=0;endArrow=block;endFill=0;" parent="1" source="uwkp4yRBVki2ElJtnmEd-39" target="uwkp4yRBVki2ElJtnmEd-40" edge="1">
          <mxGeometry relative="1" as="geometry" />
        </mxCell>
        <mxCell id="uwkp4yRBVki2ElJtnmEd-39" value="Просмотр отчётов самых продаваемых товарах" style="ellipse;whiteSpace=wrap;html=1;" parent="1" vertex="1">
          <mxGeometry x="-94.5" y="-370" width="140" height="70" as="geometry" />
        </mxCell>
        <mxCell id="uwkp4yRBVki2ElJtnmEd-44" style="rounded=0;orthogonalLoop=1;jettySize=auto;html=1;exitX=0;exitY=0.5;exitDx=0;exitDy=0;endArrow=none;endFill=0;" parent="1" source="uwkp4yRBVki2ElJtnmEd-40" target="uwkp4yRBVki2ElJtnmEd-12" edge="1">
          <mxGeometry relative="1" as="geometry" />
        </mxCell>
        <mxCell id="uwkp4yRBVki2ElJtnmEd-40" value="Просмотр отчётов" style="ellipse;whiteSpace=wrap;html=1;" parent="1" vertex="1">
          <mxGeometry x="-298.5" y="-285" width="140" height="70" as="geometry" />
        </mxCell>
        <mxCell id="uwkp4yRBVki2ElJtnmEd-46" value="&amp;lt;&amp;lt;include&amp;gt;&amp;gt;" style="html=1;verticalAlign=bottom;labelBackgroundColor=none;endArrow=open;endFill=0;dashed=1;rounded=0;entryX=0;entryY=0.5;entryDx=0;entryDy=0;exitX=1;exitY=0;exitDx=0;exitDy=0;" parent="1" source="uwkp4yRBVki2ElJtnmEd-32" target="uwkp4yRBVki2ElJtnmEd-33" edge="1">
          <mxGeometry width="160" relative="1" as="geometry">
            <mxPoint x="-379.5" y="-30" as="sourcePoint" />
            <mxPoint x="-219.5" y="-30" as="targetPoint" />
          </mxGeometry>
        </mxCell>
        <mxCell id="uwkp4yRBVki2ElJtnmEd-47" value="&amp;lt;&amp;lt;include&amp;gt;&amp;gt;" style="html=1;verticalAlign=bottom;labelBackgroundColor=none;endArrow=open;endFill=0;dashed=1;rounded=0;entryX=0.5;entryY=0;entryDx=0;entryDy=0;exitX=0.5;exitY=1;exitDx=0;exitDy=0;" parent="1" source="uwkp4yRBVki2ElJtnmEd-32" target="uwkp4yRBVki2ElJtnmEd-34" edge="1">
          <mxGeometry width="160" relative="1" as="geometry">
            <mxPoint x="-844.5" y="230" as="sourcePoint" />
            <mxPoint x="-684.5" y="230" as="targetPoint" />
          </mxGeometry>
        </mxCell>
        <mxCell id="uwkp4yRBVki2ElJtnmEd-48" value="&amp;lt;&amp;lt;extend&amp;gt;&amp;gt;" style="html=1;verticalAlign=bottom;labelBackgroundColor=none;endArrow=open;endFill=0;dashed=1;rounded=0;exitX=0;exitY=0;exitDx=0;exitDy=0;entryX=1;entryY=1;entryDx=0;entryDy=0;" parent="1" source="uwkp4yRBVki2ElJtnmEd-36" target="uwkp4yRBVki2ElJtnmEd-32" edge="1">
          <mxGeometry width="160" relative="1" as="geometry">
            <mxPoint x="-714.5" y="230" as="sourcePoint" />
            <mxPoint x="-554.5" y="230" as="targetPoint" />
          </mxGeometry>
        </mxCell>
        <mxCell id="uwkp4yRBVki2ElJtnmEd-49" value="&amp;lt;&amp;lt;extend&amp;gt;&amp;gt;" style="html=1;verticalAlign=bottom;labelBackgroundColor=none;endArrow=open;endFill=0;dashed=1;rounded=0;entryX=1;entryY=0.5;entryDx=0;entryDy=0;exitX=0;exitY=0.5;exitDx=0;exitDy=0;" parent="1" source="uwkp4yRBVki2ElJtnmEd-35" target="uwkp4yRBVki2ElJtnmEd-32" edge="1">
          <mxGeometry width="160" relative="1" as="geometry">
            <mxPoint x="0.5" y="-5" as="sourcePoint" />
            <mxPoint x="-514.5" y="20" as="targetPoint" />
          </mxGeometry>
        </mxCell>
        <mxCell id="uwkp4yRBVki2ElJtnmEd-53" value="&amp;lt;&amp;lt;include&amp;gt;&amp;gt;" style="html=1;verticalAlign=bottom;labelBackgroundColor=none;endArrow=open;endFill=0;dashed=1;rounded=0;exitX=1;exitY=1;exitDx=0;exitDy=0;entryX=0;entryY=0;entryDx=0;entryDy=0;" parent="1" source="uwkp4yRBVki2ElJtnmEd-13" target="uwkp4yRBVki2ElJtnmEd-3" edge="1">
          <mxGeometry x="0.2853" y="13" width="160" relative="1" as="geometry">
            <mxPoint x="411" y="400" as="sourcePoint" />
            <mxPoint x="571" y="400" as="targetPoint" />
            <mxPoint y="-1" as="offset" />
          </mxGeometry>
        </mxCell>
        <mxCell id="uwkp4yRBVki2ElJtnmEd-54" value="&amp;lt;&amp;lt;extend&amp;gt;&amp;gt;" style="html=1;verticalAlign=bottom;labelBackgroundColor=none;endArrow=open;endFill=0;dashed=1;rounded=0;exitX=0;exitY=0.5;exitDx=0;exitDy=0;entryX=1;entryY=0.5;entryDx=0;entryDy=0;" parent="1" source="uwkp4yRBVki2ElJtnmEd-4" target="uwkp4yRBVki2ElJtnmEd-3" edge="1">
          <mxGeometry x="-0.0588" y="-5" width="160" relative="1" as="geometry">
            <mxPoint x="734" y="365" as="sourcePoint" />
            <mxPoint x="894" y="365" as="targetPoint" />
            <mxPoint as="offset" />
          </mxGeometry>
        </mxCell>
        <mxCell id="uwkp4yRBVki2ElJtnmEd-55" value="&amp;lt;&amp;lt;extend&amp;gt;&amp;gt;" style="html=1;verticalAlign=bottom;labelBackgroundColor=none;endArrow=open;endFill=0;dashed=1;rounded=0;exitX=0;exitY=0.5;exitDx=0;exitDy=0;entryX=1;entryY=0.5;entryDx=0;entryDy=0;" parent="1" source="uwkp4yRBVki2ElJtnmEd-6" target="uwkp4yRBVki2ElJtnmEd-13" edge="1">
          <mxGeometry width="160" relative="1" as="geometry">
            <mxPoint x="361" y="450" as="sourcePoint" />
            <mxPoint x="521" y="450" as="targetPoint" />
          </mxGeometry>
        </mxCell>
        <mxCell id="uwkp4yRBVki2ElJtnmEd-62" value="&amp;lt;&amp;lt;extend&amp;gt;&amp;gt;" style="html=1;verticalAlign=bottom;labelBackgroundColor=none;endArrow=open;endFill=0;dashed=1;rounded=0;exitX=0;exitY=0.5;exitDx=0;exitDy=0;entryX=1;entryY=0.5;entryDx=0;entryDy=0;" parent="1" source="uwkp4yRBVki2ElJtnmEd-21" target="uwkp4yRBVki2ElJtnmEd-5" edge="1">
          <mxGeometry width="160" relative="1" as="geometry">
            <mxPoint x="324" y="810" as="sourcePoint" />
            <mxPoint x="484" y="810" as="targetPoint" />
          </mxGeometry>
        </mxCell>
        <mxCell id="uwkp4yRBVki2ElJtnmEd-65" value="&amp;lt;&amp;lt;extend&amp;gt;&amp;gt;" style="html=1;verticalAlign=bottom;labelBackgroundColor=none;endArrow=open;endFill=0;dashed=1;rounded=0;exitX=0.5;exitY=1;exitDx=0;exitDy=0;entryX=0.5;entryY=0;entryDx=0;entryDy=0;" parent="1" source="uwkp4yRBVki2ElJtnmEd-3" target="uwkp4yRBVki2ElJtnmEd-5" edge="1">
          <mxGeometry x="0.2018" y="2" width="160" relative="1" as="geometry">
            <mxPoint x="204" y="415" as="sourcePoint" />
            <mxPoint x="173" y="665" as="targetPoint" />
            <mxPoint y="1" as="offset" />
          </mxGeometry>
        </mxCell>
        <mxCell id="uwkp4yRBVki2ElJtnmEd-71" value="&amp;lt;&amp;lt;include&amp;gt;&amp;gt;" style="html=1;verticalAlign=bottom;labelBackgroundColor=none;endArrow=open;endFill=0;dashed=1;rounded=0;exitX=0.901;exitY=0.168;exitDx=0;exitDy=0;entryX=0;entryY=0.5;entryDx=0;entryDy=0;exitPerimeter=0;" parent="1" source="uwkp4yRBVki2ElJtnmEd-30" target="uwkp4yRBVki2ElJtnmEd-8" edge="1">
          <mxGeometry x="-0.5385" y="-30" width="160" relative="1" as="geometry">
            <mxPoint x="-148" y="300" as="sourcePoint" />
            <mxPoint x="12" y="300" as="targetPoint" />
            <mxPoint as="offset" />
          </mxGeometry>
        </mxCell>
        <mxCell id="uwkp4yRBVki2ElJtnmEd-74" value="&amp;lt;&amp;lt;include&amp;gt;&amp;gt;" style="html=1;verticalAlign=bottom;labelBackgroundColor=none;endArrow=open;endFill=0;dashed=1;rounded=0;exitX=0;exitY=0;exitDx=0;exitDy=0;entryX=1;entryY=0.5;entryDx=0;entryDy=0;" parent="1" source="uwkp4yRBVki2ElJtnmEd-30" target="uwkp4yRBVki2ElJtnmEd-9" edge="1">
          <mxGeometry width="160" relative="1" as="geometry">
            <mxPoint x="-208" y="150" as="sourcePoint" />
            <mxPoint x="-48" y="150" as="targetPoint" />
          </mxGeometry>
        </mxCell>
        <mxCell id="uwkp4yRBVki2ElJtnmEd-75" value="&amp;lt;&amp;lt;include&amp;gt;&amp;gt;" style="html=1;verticalAlign=bottom;labelBackgroundColor=none;endArrow=open;endFill=0;dashed=1;rounded=0;entryX=0.5;entryY=1;entryDx=0;entryDy=0;exitX=0.5;exitY=0;exitDx=0;exitDy=0;" parent="1" source="uwkp4yRBVki2ElJtnmEd-30" target="uwkp4yRBVki2ElJtnmEd-10" edge="1">
          <mxGeometry x="-0.4368" width="160" relative="1" as="geometry">
            <mxPoint x="-238" y="170" as="sourcePoint" />
            <mxPoint x="-78" y="170" as="targetPoint" />
            <mxPoint as="offset" />
          </mxGeometry>
        </mxCell>
        <mxCell id="uwkp4yRBVki2ElJtnmEd-76" value="&amp;lt;&amp;lt;include&amp;gt;&amp;gt;" style="html=1;verticalAlign=bottom;labelBackgroundColor=none;endArrow=open;endFill=0;dashed=1;rounded=0;exitX=1;exitY=0;exitDx=0;exitDy=0;entryX=0;entryY=1;entryDx=0;entryDy=0;" parent="1" source="uwkp4yRBVki2ElJtnmEd-22" target="uwkp4yRBVki2ElJtnmEd-30" edge="1">
          <mxGeometry x="-0.5179" width="160" relative="1" as="geometry">
            <mxPoint x="349" y="225" as="sourcePoint" />
            <mxPoint x="509" y="225" as="targetPoint" />
            <mxPoint as="offset" />
          </mxGeometry>
        </mxCell>
        <mxCell id="uwkp4yRBVki2ElJtnmEd-83" value="Добавление информации о товаре" style="ellipse;whiteSpace=wrap;html=1;" parent="1" vertex="1">
          <mxGeometry x="10" y="-520" width="140" height="70" as="geometry" />
        </mxCell>
        <mxCell id="uwkp4yRBVki2ElJtnmEd-84" value="Изменение информации о товаре" style="ellipse;whiteSpace=wrap;html=1;" parent="1" vertex="1">
          <mxGeometry x="-130" y="-550" width="140" height="70" as="geometry" />
        </mxCell>
        <mxCell id="uwkp4yRBVki2ElJtnmEd-85" value="Удаление информации о товаре" style="ellipse;whiteSpace=wrap;html=1;" parent="1" vertex="1">
          <mxGeometry x="31" y="-420" width="140" height="70" as="geometry" />
        </mxCell>
        <mxCell id="l0MtIw0V8u-qRlRf5djz-4" value="Онлайн-магазин" style="text;html=1;align=center;verticalAlign=middle;whiteSpace=wrap;rounded=0;" parent="1" vertex="1">
          <mxGeometry x="-443" y="-584" width="133" height="30" as="geometry" />
        </mxCell>
        <mxCell id="OPZ-vXAknjKZPCobPLE2-2" value="&amp;lt;&amp;lt;extend&amp;gt;&amp;gt;" style="html=1;verticalAlign=bottom;labelBackgroundColor=none;endArrow=open;endFill=0;dashed=1;rounded=0;exitX=0.5;exitY=1;exitDx=0;exitDy=0;entryX=0;entryY=0;entryDx=0;entryDy=0;" edge="1" parent="1" source="uwkp4yRBVki2ElJtnmEd-13" target="uwkp4yRBVki2ElJtnmEd-5">
          <mxGeometry x="-0.4354" y="-21" width="160" relative="1" as="geometry">
            <mxPoint x="-71" y="710" as="sourcePoint" />
            <mxPoint x="-108" y="800" as="targetPoint" />
            <mxPoint as="offset" />
          </mxGeometry>
        </mxCell>
      </root>
    </mxGraphModel>
  </diagram>
</mxfile>
